<?xml version="1.0" encoding="UTF-8" standalone="no"?>
<!-- Created with Inkscape (http://www.inkscape.org/) -->
<svg
   xmlns:svg="http://www.w3.org/2000/svg"
   xmlns="http://www.w3.org/2000/svg"
   id="svg875"
   height="1052.3622"
   width="744.09448"
   y="0.00000000"
   x="0.00000000"
   version="1.0">
  <defs
     id="defs877" />
  <g
     id="g838"
     transform="matrix(0.500000,0.000000,0.000000,0.500000,178.1989,264.9102)">
    <path
       id="path897"
       style="fill:#c0c0c0;fill-opacity:1.0000000;fill-rule:evenodd;stroke-width:1.0000000pt"
       d="M 308.68750,472.46875 C 283.85850,479.97219 265.77408,503.00647 265.78125,530.28125 C 265.77248,563.64179 292.82698,590.68750 326.18750,590.68750 C 359.54803,590.68749 386.57127,563.64177 386.56250,530.28125 C 386.56968,502.99592 368.49247,479.96305 343.65625,472.46875 L 343.65625,496.34375 C 355.98409,502.71894 364.50390,515.44576 364.50000,530.28125 C 364.50556,551.44792 347.35419,568.62502 326.18750,568.62500 C 305.02083,568.62500 287.86944,551.44789 287.87500,530.28125 C 287.87111,515.45553 296.37290,502.72329 308.68750,496.34375 L 308.68750,472.46875 z " />
    <rect
       id="rect935"
       style="fill:#ffffff;fill-rule:evenodd;stroke-width:0.96316376pt"
       y="516.89014"
       x="303.26648"
       height="81.508873"
       width="107.73819" />
    <rect
       id="rect1010"
       style="fill:#c0c0c0;fill-opacity:1.0000000;fill-rule:evenodd;stroke-width:1.0000000pt"
       transform="translate(-10.29360,-123.6178)"
       y="574.62885"
       x="326.68689"
       height="55.395298"
       width="19.575783" />
    <path
       id="path1002"
       style="font-size:25.000000;fill:#0030b0;stroke-width:0.62500000;font-family:Faktos"
       d="M 365.83884,521.20509 L 366.58273,521.20509 L 366.58273,525.50509 L 365.94511,525.58009 C 365.85655,525.58009 365.76799,525.58843 365.67943,525.60509 C 365.60858,525.62176 365.52888,525.64676 365.44032,525.68009 C 364.89125,525.81343 364.36876,526.08009 363.87282,526.48009 C 363.37689,526.88009 363.04922,527.30509 362.88982,527.75509 C 362.87210,527.83843 362.85440,527.92176 362.83668,528.00509 C 362.81897,528.08843 362.81011,528.17176 362.81011,528.25509 L 362.81011,534.98009 L 358.18733,534.98009 L 358.18733,521.20509 L 362.46473,521.20509 L 362.46473,522.80509 C 362.92524,522.32176 363.43889,521.93843 364.00566,521.65509 C 364.57244,521.35509 365.18350,521.20509 365.83884,521.20509 z M 344.91255,533.03009 C 344.57602,532.49676 344.31034,531.92176 344.11552,531.30509 C 343.93839,530.67176 343.84984,529.80509 343.84984,528.70509 L 343.84984,527.95509 C 343.84984,527.85509 343.84984,527.75509 343.84984,527.65509 C 343.84984,527.55509 343.85869,527.45509 343.87641,527.35509 C 343.96496,525.75509 344.47861,524.29676 345.41733,522.98009 C 346.35606,521.64676 347.89699,520.98009 350.04012,520.98009 C 352.30723,520.98009 353.85703,521.63843 354.68948,522.95509 C 355.52193,524.25509 355.97358,525.68843 356.04443,527.25509 C 356.06215,527.37176 356.07100,527.48843 356.07100,527.60509 C 356.07100,527.72176 356.07100,527.83843 356.07100,527.95509 L 356.07100,529.95509 L 348.57890,529.95509 C 348.57890,530.00509 348.57890,530.05509 348.57890,530.10509 C 348.59661,530.15509 348.60546,530.20509 348.60546,530.25509 C 348.65860,530.47176 348.76487,530.67176 348.92428,530.85509 C 349.10140,531.02176 349.34936,531.10509 349.66817,531.10509 L 355.30054,531.10509 L 355.30054,534.98009 L 348.60546,534.98009 C 347.79072,534.98009 347.06454,534.79676 346.42691,534.43009 C 345.78928,534.06343 345.28450,533.59676 344.91255,533.03009 z M 348.79144,525.38009 C 348.75602,525.44676 348.72059,525.51343 348.68517,525.58009 C 348.66745,525.63009 348.64975,525.68843 348.63203,525.75509 C 348.57890,525.90509 348.53461,526.06343 348.49919,526.23009 C 348.48148,526.38009 348.47263,526.56343 348.47263,526.78009 L 351.82016,526.78009 C 351.82016,526.58009 351.80245,526.41343 351.76703,526.28009 C 351.74931,526.13009 351.72274,525.98843 351.68732,525.85509 C 351.65190,525.77176 351.61647,525.69676 351.58105,525.63009 C 351.56334,525.54676 351.53677,525.46343 351.50135,525.38009 C 351.48363,525.34676 351.44821,525.30509 351.39508,525.25509 C 351.35966,525.20509 351.30652,525.14676 351.23567,525.08009 C 351.12940,524.99676 350.97885,524.91343 350.78402,524.83009 C 350.58919,524.74676 350.36779,524.70509 350.11983,524.70509 C 349.87186,524.70509 349.65046,524.74676 349.45563,524.83009 C 349.26081,524.91343 349.11025,525.00509 349.00398,525.10509 C 348.95085,525.15509 348.90656,525.20509 348.87114,525.25509 C 348.83572,525.30509 348.80915,525.34676 348.79144,525.38009 z M 331.22106,521.20509 L 334.59516,521.20509 L 336.61431,529.33009 L 338.39435,521.20509 L 343.68133,521.20509 L 339.24452,534.98009 L 334.35605,534.98009 L 332.92140,529.43009 L 331.40703,534.98009 L 326.51857,534.98009 L 322.13489,521.20509 L 327.39530,521.20509 L 329.17534,529.33009 L 331.22106,521.20509 z M 316.03723,535.20509 C 313.80554,535.18843 312.24689,534.54676 311.36131,533.28009 C 310.49342,532.01343 310.00635,530.61343 309.90008,529.08009 C 309.88236,528.94676 309.87351,528.82176 309.87351,528.70509 C 309.87351,528.57176 309.87351,528.43843 309.87351,528.30509 L 309.87351,527.93009 C 309.87351,527.81343 309.87351,527.70509 309.87351,527.60509 C 309.87351,527.48843 309.88236,527.38009 309.90008,527.28009 C 309.97093,525.69676 310.44029,524.25509 311.30817,522.95509 C 312.19376,521.63843 313.77012,520.98009 316.03723,520.98009 C 318.28664,520.98009 319.84527,521.63843 320.71315,522.95509 C 321.59874,524.25509 322.08582,525.69676 322.17438,527.28009 C 322.19209,527.38009 322.20095,527.48843 322.20095,527.60509 C 322.20095,527.70509 322.20095,527.81343 322.20095,527.93009 L 322.20095,528.30509 C 322.20095,528.43843 322.20095,528.57176 322.20095,528.70509 C 322.20095,528.82176 322.19209,528.94676 322.17438,529.08009 C 322.06811,530.61343 321.57217,532.01343 320.68659,533.28009 C 319.80100,534.54676 318.25120,535.18009 316.03723,535.18009 L 316.03723,535.20509 z M 317.63129,527.43009 C 317.63129,527.36343 317.63129,527.29676 317.63129,527.23009 C 317.63129,527.16343 317.62244,527.09676 317.60473,527.03009 C 317.58701,526.69676 317.54274,526.38009 317.47189,526.08009 C 317.40104,525.78009 317.33020,525.57176 317.25935,525.45509 C 317.24163,525.42176 317.21506,525.38843 317.17964,525.35509 C 317.16193,525.30509 317.14422,525.26343 317.12651,525.23009 C 317.03795,525.08009 316.92282,524.95509 316.78113,524.85509 C 316.63944,524.75509 316.39146,524.70509 316.03723,524.70509 C 315.68300,524.70509 315.43502,524.75509 315.29333,524.85509 C 315.15164,524.95509 315.03651,525.08009 314.94795,525.23009 C 314.93024,525.26343 314.90367,525.30509 314.86825,525.35509 C 314.85053,525.38843 314.83283,525.42176 314.81511,525.45509 C 314.74426,525.57176 314.67342,525.78009 314.60257,526.08009 C 314.53172,526.38009 314.48745,526.69676 314.46973,527.03009 C 314.45202,527.09676 314.44316,527.16343 314.44316,527.23009 C 314.44316,527.29676 314.44316,527.36343 314.44316,527.43009 L 314.44316,528.55509 C 314.44316,528.63843 314.44316,528.72176 314.44316,528.80509 C 314.44316,528.88843 314.45202,528.97176 314.46973,529.05509 C 314.48745,529.35509 314.53172,529.64676 314.60257,529.93009 C 314.67342,530.19676 314.74426,530.38843 314.81511,530.50509 C 314.83283,530.53843 314.85053,530.58009 314.86825,530.63009 C 314.90367,530.66343 314.93024,530.69676 314.94795,530.73009 C 315.03651,530.88009 315.15164,531.00509 315.29333,531.10509 C 315.43502,531.20509 315.68300,531.25509 316.03723,531.25509 C 316.39146,531.25509 316.63944,531.20509 316.78113,531.10509 C 316.92282,531.00509 317.03795,530.88009 317.12651,530.73009 C 317.14422,530.69676 317.16193,530.66343 317.17964,530.63009 C 317.21506,530.58009 317.24163,530.53843 317.25935,530.50509 C 317.33020,530.38843 317.40104,530.19676 317.47189,529.93009 C 317.54274,529.64676 317.58701,529.35509 317.60473,529.05509 C 317.62244,528.97176 317.63129,528.88843 317.63129,528.80509 C 317.63129,528.72176 317.63129,528.63843 317.63129,528.55509 L 317.63129,527.43009 z M 307.04441,532.95509 C 306.67246,533.52176 306.15882,534.00509 305.50348,534.40509 C 304.84814,534.78843 304.09539,534.98009 303.24522,534.98009 L 300.40247,534.98009 L 300.40247,540.03009 L 295.77968,540.03009 L 295.77968,521.20509 L 302.97954,521.20509 C 303.98912,521.20509 304.78615,521.39676 305.37064,521.78009 C 305.95513,522.16343 306.44220,522.63009 306.83187,523.18009 C 307.20381,523.74676 307.49606,524.38843 307.70860,525.10509 C 307.92114,525.82176 308.02741,526.68843 308.02741,527.70509 L 308.02741,528.25509 C 308.02741,529.32176 307.94771,530.23009 307.78830,530.98009 C 307.64661,531.73009 307.39864,532.38843 307.04441,532.95509 z M 301.83713,524.73009 L 300.40247,524.73009 L 300.40247,531.10509 C 300.84527,531.10509 301.20835,531.10509 301.49175,531.10509 C 301.77514,531.10509 301.91683,531.10509 301.91683,531.10509 C 302.12937,531.10509 302.29763,531.08009 302.42162,531.03009 C 302.56331,530.96343 302.69615,530.88009 302.82013,530.78009 C 302.85556,530.74676 302.89099,530.71343 302.92641,530.68009 C 302.97954,530.63009 303.02382,530.58843 303.05924,530.55509 C 303.14780,530.45509 303.20980,530.28843 303.24522,530.05509 C 303.29835,529.80509 303.33377,529.53843 303.35149,529.25509 C 303.36921,529.12176 303.37806,528.99676 303.37806,528.88009 C 303.37806,528.74676 303.37806,528.62176 303.37806,528.50509 L 303.37806,527.23009 C 303.37806,527.14676 303.37806,527.06343 303.37806,526.98009 C 303.37806,526.89676 303.37806,526.80509 303.37806,526.70509 C 303.36034,526.40509 303.32492,526.12176 303.27179,525.85509 C 303.21865,525.57176 303.13895,525.35509 303.03268,525.20509 C 302.90869,525.02176 302.74928,524.89676 302.55446,524.83009 C 302.35963,524.76343 302.12052,524.73009 301.83713,524.73009 z " />
    <path
       id="path905"
       style="font-size:72.000000;fill:#ffffff;stroke:#000000;stroke-width:1.8750000;font-family:Faktos"
       transform="translate(0.000000,7.500000)"
       d="M 366.19119,557.10918 L 366.19119,578.85318 L 353.66319,578.85318 L 353.66319,554.01318 C 353.66319,552.33318 353.30319,551.13318 352.58319,550.41318 C 351.91119,549.64518 351.02319,549.26118 349.91919,549.26118 C 349.91919,549.26118 349.60719,549.26118 348.98319,549.26118 C 348.35919,549.26118 347.47119,549.26118 346.31919,549.26118 L 346.31919,578.85318 L 333.79119,578.85318 L 333.79119,539.18118 L 352.87119,539.18118 C 355.89519,539.18118 358.29519,539.75718 360.07119,540.90918 C 361.89519,542.06118 363.31119,543.47718 364.31919,545.15718 C 364.51119,545.49318 364.67919,545.82918 364.82319,546.16518 C 365.01519,546.45318 365.15919,546.76518 365.25519,547.10118 C 365.73519,548.30118 365.99919,549.57318 366.04719,550.91718 C 366.14319,552.21318 366.19119,553.91718 366.19119,556.02918 C 366.19119,556.17318 366.19119,556.34118 366.19119,556.53318 C 366.19119,556.72518 366.19119,556.91718 366.19119,557.10918 z " />
    <path
       id="path904"
       style="font-size:72.000000;fill:#ffffff;stroke:#000000;stroke-width:1.8750000;font-family:Faktos"
       transform="translate(0.000000,7.500000)"
       d="M 402.58565,524.06118 L 402.58565,537.30918 L 391.78565,537.30918 L 391.78565,578.85318 L 377.74565,578.85318 L 377.74565,537.30918 L 366.94565,537.30918 L 366.94565,524.06118 L 402.58565,524.06118 z " />
    <path
       id="path913"
       style="font-size:72.000000;fill:#ffffff;stroke:#000000;stroke-width:1.8750000;font-family:Faktos"
       transform="translate(0.000000,7.500000)"
       d="M 424.89280,562.07718 L 417.69280,564.45318 C 417.02080,564.64518 416.51680,564.88518 416.18080,565.17318 C 415.84480,565.41318 415.67680,565.70118 415.67680,566.03718 C 415.67680,566.66118 415.82080,567.09318 416.10880,567.33318 C 416.39680,567.57318 416.80480,567.69318 417.33280,567.69318 L 424.89280,567.69318 L 424.89280,562.07718 z M 406.82080,549.26118 L 406.82080,539.18118 L 426.11680,539.18118 C 429.47680,539.18118 432.21280,540.04518 434.32480,541.77318 C 436.43680,543.50118 437.49280,545.94918 437.49280,549.11718 L 437.49280,578.85318 L 417.54880,578.85318 C 413.70880,578.85318 410.39680,577.94118 407.61280,576.11718 C 404.87680,574.24518 403.50880,571.12518 403.50880,566.75718 C 403.50880,563.34918 404.34880,560.78118 406.02880,559.05318 C 407.70880,557.32518 409.55680,556.07718 411.57280,555.30918 C 412.58080,554.92518 413.56480,554.61318 414.52480,554.37318 C 415.48480,554.13318 416.34880,553.94118 417.11680,553.79718 C 417.83680,553.65318 418.50880,553.50918 419.13280,553.36518 C 419.75680,553.22118 420.35680,553.10118 420.93280,553.00518 C 421.02880,553.00518 421.10080,553.00518 421.14880,553.00518 C 421.24480,552.95718 421.31680,552.93318 421.36480,552.93318 C 421.74880,552.83718 422.13280,552.76518 422.51680,552.71718 C 422.94880,552.62118 423.35680,552.52518 423.74080,552.42918 C 424.31680,552.28518 424.72480,552.06918 424.96480,551.78118 C 425.20480,551.49318 425.32480,551.10918 425.32480,550.62918 C 425.32480,550.24518 425.18080,549.93318 424.89280,549.69318 C 424.60480,549.40518 424.19680,549.26118 423.66880,549.26118 L 406.82080,549.26118 z " />
    <path
       id="path910"
       style="font-size:72.000000;fill:#ffffff;stroke:#000000;stroke-width:1.8750000;font-family:Faktos"
       transform="translate(0.000000,7.500000)"
       d="M 460.90565,549.33318 L 457.01765,549.33318 L 457.01765,567.69318 C 458.21765,567.69318 459.20165,567.69318 459.96965,567.69318 C 460.73765,567.69318 461.12165,567.69318 461.12165,567.69318 C 461.69765,567.69318 462.15365,567.62118 462.48965,567.47718 C 462.87365,567.28518 463.23365,567.04518 463.56965,566.75718 C 463.66565,566.66118 463.76165,566.56518 463.85765,566.46918 C 464.00165,566.32518 464.12165,566.20518 464.21765,566.10918 C 464.45765,565.82118 464.62565,565.34118 464.72165,564.66918 C 464.86565,563.94918 464.96165,563.18118 465.00965,562.36518 C 465.05765,561.98118 465.08165,561.62118 465.08165,561.28518 C 465.08165,560.90118 465.08165,560.54118 465.08165,560.20518 L 465.08165,556.53318 C 465.08165,556.29318 465.08165,556.05318 465.08165,555.81318 C 465.08165,555.57318 465.08165,555.30918 465.08165,555.02118 C 465.03365,554.15718 464.93765,553.34118 464.79365,552.57318 C 464.64965,551.75718 464.43365,551.13318 464.14565,550.70118 C 463.80965,550.17318 463.37765,549.81318 462.84965,549.62118 C 462.32165,549.42918 461.67365,549.33318 460.90565,549.33318 z M 475.01765,573.02118 C 474.00965,574.65318 472.61765,576.04518 470.84165,577.19718 C 469.06565,578.30118 467.02565,578.85318 464.72165,578.85318 L 457.01765,578.85318 L 457.27892,601.14160 L 444.75092,601.14160 L 444.48965,539.18118 L 464.00165,539.18118 C 466.73765,539.18118 468.89765,539.73318 470.48165,540.83718 C 472.06565,541.94118 473.38565,543.28518 474.44165,544.86918 C 475.44965,546.50118 476.24165,548.34918 476.81765,550.41318 C 477.39365,552.47718 477.68165,554.97318 477.68165,557.90118 L 477.68165,559.48518 C 477.68165,562.55718 477.46565,565.17318 477.03365,567.33318 C 476.64965,569.49318 475.97765,571.38918 475.01765,573.02118 z " />
    <path
       id="path952"
       style="font-size:72.000000;fill:#ffffff;stroke:#000000;stroke-width:1.8750000;font-family:Faktos"
       d="M 309.84965,587.00118 C 303.80165,586.95318 299.57765,585.10518 297.17765,581.45718 C 294.82565,577.80918 293.50565,573.77718 293.21765,569.36118 C 293.16965,568.97718 293.14565,568.61718 293.14565,568.28118 C 293.14565,567.89718 293.14565,567.51318 293.14565,567.12918 L 293.14565,566.04918 C 293.14565,565.71318 293.14565,565.40118 293.14565,565.11318 C 293.14565,564.77718 293.16965,564.46518 293.21765,564.17718 C 293.40965,559.61718 294.68165,555.46518 297.03365,551.72118 C 299.43365,547.92918 303.70565,546.03318 309.84965,546.03318 C 315.94565,546.03318 320.16965,547.92918 322.52165,551.72118 C 324.92165,555.46518 326.24165,559.61718 326.48165,564.17718 C 326.52965,564.46518 326.55365,564.77718 326.55365,565.11318 C 326.55365,565.40118 326.55365,565.71318 326.55365,566.04918 L 326.55365,567.12918 C 326.55365,567.51318 326.55365,567.89718 326.55365,568.28118 C 326.55365,568.61718 326.52965,568.97718 326.48165,569.36118 C 326.19365,573.77718 324.84965,577.80918 322.44965,581.45718 C 320.04965,585.10518 315.84965,586.92918 309.84965,586.92918 L 309.84965,587.00118 z M 314.16965,564.60918 C 314.16965,564.41718 314.16965,564.22518 314.16965,564.03318 C 314.16965,563.84118 314.14565,563.64918 314.09765,563.45718 C 314.04965,562.49718 313.92965,561.58518 313.73765,560.72118 C 313.54565,559.85718 313.35365,559.25718 313.16165,558.92118 C 313.11365,558.82518 313.04165,558.72918 312.94565,558.63318 C 312.89765,558.48918 312.84965,558.36918 312.80165,558.27318 C 312.56165,557.84118 312.24965,557.48118 311.86565,557.19318 C 311.48165,556.90518 310.80965,556.76118 309.84965,556.76118 C 308.88965,556.76118 308.21765,556.90518 307.83365,557.19318 C 307.44965,557.48118 307.13765,557.84118 306.89765,558.27318 C 306.84965,558.36918 306.77765,558.48918 306.68165,558.63318 C 306.63365,558.72918 306.58565,558.82518 306.53765,558.92118 C 306.34565,559.25718 306.15365,559.85718 305.96165,560.72118 C 305.76965,561.58518 305.64965,562.49718 305.60165,563.45718 C 305.55365,563.64918 305.52965,563.84118 305.52965,564.03318 C 305.52965,564.22518 305.52965,564.41718 305.52965,564.60918 L 305.52965,567.84918 C 305.52965,568.08918 305.52965,568.32918 305.52965,568.56918 C 305.52965,568.80918 305.55365,569.04918 305.60165,569.28918 C 305.64965,570.15318 305.76965,570.99318 305.96165,571.80918 C 306.15365,572.57718 306.34565,573.12918 306.53765,573.46518 C 306.58565,573.56118 306.63365,573.68118 306.68165,573.82518 C 306.77765,573.92118 306.84965,574.01718 306.89765,574.11318 C 307.13765,574.54518 307.44965,574.90518 307.83365,575.19318 C 308.21765,575.48118 308.88965,575.62518 309.84965,575.62518 C 310.80965,575.62518 311.48165,575.48118 311.86565,575.19318 C 312.24965,574.90518 312.56165,574.54518 312.80165,574.11318 C 312.84965,574.01718 312.89765,573.92118 312.94565,573.82518 C 313.04165,573.68118 313.11365,573.56118 313.16165,573.46518 C 313.35365,573.12918 313.54565,572.57718 313.73765,571.80918 C 313.92965,570.99318 314.04965,570.15318 314.09765,569.28918 C 314.14565,569.04918 314.16965,568.80918 314.16965,568.56918 C 314.16965,568.32918 314.16965,568.08918 314.16965,567.84918 L 314.16965,564.60918 z " />
  </g>
</svg>
